<svg width="30" height="33" xmlns="http://www.w3.org/2000/svg">
    <path d="M21.051 31.945c0-.668.025-3.474.025-6.2 0-1.902-.652-3.145-1.384-3.775C24.234 21.466 29 19.743 29 11.912c0-2.225-.79-4.045-2.096-5.47.21-.516.91-2.588-.203-5.395 0 0-1.708-.548-5.6 2.09a19.552 19.552 0 0 0-5.103-.686 19.523 19.523 0 0 0-5.103.686C7.001.499 5.29 1.047 5.29 1.047c-1.109 2.807-.41 4.88-.199 5.395-1.304 1.425-2.098 3.245-2.098 5.47 0 7.81 4.759 9.56 9.285 10.074-.583.51-1.109 1.408-1.294 2.726-1.163.522-4.115 1.42-5.933-1.694 0 0-1.076-1.956-3.122-2.102 0 0-1.991-.025-.14 1.24 0 0 1.336.628 2.263 2.983 0 0 1.197 3.964 6.867 2.731.01 1.702.027 3.59.027 4.075h10.106z" stroke="#FFF" stroke-width="1.5" fill="none" fill-rule="evenodd"/>
</svg>
