<svg width="220" height="57" xmlns="http://www.w3.org/2000/svg">
    <path d="M94.878 22.733h9.671a1.45 1.45 0 0 0 1.437-1.624c-.088-.733-.737-1.27-1.475-1.27H92.488c-.796 0-1.447.65-1.447 1.447v14.472c0 .797.651 1.448 1.447 1.448h12.061c.854 0 1.542-.75 1.437-1.624-.088-.733-.737-1.27-1.475-1.27h-9.633a.943.943 0 0 1-.942-.944v-2.456c0-.52.422-.943.942-.943h7.259a1.45 1.45 0 0 0 1.436-1.623c-.088-.734-.736-1.271-1.474-1.271h-7.22a.943.943 0 0 1-.943-.943v-2.456c0-.52.422-.943.942-.943m-16.64 0c1.616 0 2.967.579 4.076 1.713.266.265.627.41 1.037.41.796 0 1.448-.652 1.448-1.448 0-.41-.193-.796-.603-1.157-1.713-1.617-3.715-2.413-5.958-2.413-2.388 0-4.439.845-6.151 2.557-1.689 1.689-2.533 3.74-2.533 6.127 0 2.388.844 4.438 2.533 6.151 1.712 1.688 3.763 2.533 6.15 2.533 2.389 0 4.439-.845 6.128-2.533.578-.579.578-1.496 0-2.05-.555-.58-1.472-.58-2.05 0-1.134 1.133-2.485 1.688-4.077 1.688s-2.967-.555-4.1-1.688c-1.135-1.134-1.69-2.509-1.69-4.1 0-1.593.555-2.944 1.69-4.077 1.133-1.134 2.508-1.713 4.1-1.713M125.4 34.311h-9.631a.944.944 0 0 1-.944-.944V21.324c0-.739-.538-1.387-1.271-1.475a1.451 1.451 0 0 0-1.624 1.437v14.472c0 .797.651 1.448 1.448 1.448h12.06c.854 0 1.542-.75 1.437-1.624-.089-.733-.737-1.27-1.475-1.27m60.9-14.474h-14.435a1.45 1.45 0 0 0-1.437 1.624c.088.733.737 1.271 1.475 1.271h4.808c.52 0 .943.422.943.943v12.082c0 .855.75 1.542 1.624 1.437.733-.088 1.27-.736 1.27-1.475V23.676c0-.52.423-.943.943-.943h4.846c.855 0 1.542-.75 1.437-1.624-.088-.733-.736-1.27-1.475-1.27m7.648 0c-.796 0-1.447.65-1.447 1.447v14.472c0 .797.651 1.448 1.447 1.448s1.447-.651 1.447-1.448V21.286c0-.796-.65-1.448-1.447-1.448m-28.958 8.515c-1.327-.844-3.112-1.278-5.355-1.278-2.967 0-4.462-.724-4.462-2.171 0-1.447 1.495-2.171 4.462-2.171 1.64 0 3.208.314 4.704.917.868.265 1.471-.049 1.809-.893.289-.748-.097-1.471-.893-1.833-1.664-.724-3.522-1.086-5.62-1.086-2.195 0-3.956.459-5.33 1.351-1.352.893-2.027 2.147-2.027 3.715 0 1.664.675 2.943 2.002 3.787 1.327.844 3.112 1.278 5.355 1.278 2.967 0 4.462.724 4.462 2.171 0 1.447-1.495 2.171-4.462 2.171h-.724c-1.495 0-3.063-.313-4.68-.917-.747-.265-1.519.073-1.832.87-.29.747.144 1.615.892 1.88 1.665.7 3.522 1.062 5.62 1.062h.724c2.195 0 3.956-.459 5.307-1.351 1.375-.893 2.05-2.147 2.05-3.715 0-1.664-.675-2.942-2.002-3.787m-29.566-5.62h9.673c.854 0 1.542-.75 1.437-1.624-.088-.733-.737-1.27-1.475-1.27h-12.022c-.797 0-1.448.65-1.448 1.447v14.472c0 .797.651 1.448 1.448 1.448h12.06c.854 0 1.542-.75 1.437-1.624-.089-.733-.737-1.27-1.475-1.27h-9.635a.94.94 0 0 1-.94-.941V30.91c0-.52.42-.94.94-.94h7.261a1.45 1.45 0 0 0 1.437-1.624c-.089-.734-.737-1.271-1.475-1.271h-7.223a.94.94 0 0 1-.94-.94v-2.462c0-.52.42-.94.94-.94m-81.65 6.085c-.006.174-.243.22-.311.06l-.09-.209a.385.385 0 0 1 .043-.385l.094-.123c.113-.147.275-.126.275.038 0 .214-.005.4-.012.619m-1.245-3.401a.522.522 0 0 1-.897.028 30.497 30.497 0 0 0-2.737-3.614.428.428 0 0 1 .324-.71h.008c2.306 0 3.514.57 3.883 1.265.308.582.213 1.599-.581 3.03m-.515 12.056c-.124.315-.253.627-.39.937-.02.042-.04.086-.062.128-.849 1.633-2.273 2.919-4.175 3.814a.55.55 0 0 1-.767-.644c.632-2.261 1.11-4.713 1.42-7.284.058-.48.294-.92.66-1.235a41.84 41.84 0 0 0 2.184-2.024l.008-.008a.619.619 0 0 1 1.03.26c.663 2.207.7 4.263.092 6.056m-5.172 8.163a25.533 25.533 0 0 1-1.669 1.629c-.231.206-.581-.052-.45-.333l.111-.242c.154-.34.303-.689.448-1.044a.287.287 0 0 1 .194-.169c.365-.092.72-.194 1.067-.306.281-.09.501.25.3.465m-3.799-2.04a22.39 22.39 0 0 1-2.42.212c-2.062.072-4.241-.106-6.48-.518a.29.29 0 0 1-.078-.544c.488-.248.977-.5 1.465-.76 3.426-1.815 6.623-3.8 9.421-5.836a.29.29 0 0 1 .457.284c-.388 2.333-.926 4.528-1.6 6.521a.953.953 0 0 1-.765.64m-.792 3.108c-1.837 3.613-4.099 5.64-6.292 5.6-2.383-.042-4.76-2.524-6.52-6.81l-.002-.004a.54.54 0 0 1 .286-.7l.056-.025a.548.548 0 0 1 .367-.025c3.292.924 6.536 1.406 9.575 1.406a25.838 25.838 0 0 0 2.107-.081.44.44 0 0 1 .423.639m-10.877 6.87c-1.093.14-2.2.212-3.32.212-5.002 0-9.785-1.417-13.892-4.062-.283-.182-.163-.62.173-.636l.192-.01a27.765 27.765 0 0 0 3.428-.46c2.638-.507 5.57-1.378 8.64-2.55a.543.543 0 0 1 .695.304c0 .002 0 .003.002.005 1.19 2.897 2.654 5.086 4.298 6.478a.41.41 0 0 1-.216.72m-14.88-18.03c2.267-1.846 4.924-3.688 7.838-5.432.062 3.727.471 7.306 1.194 10.538a47.035 47.035 0 0 1-3.226-1.523 45.728 45.728 0 0 1-5.806-3.583M9.44 45.531c-.54-1.021.158-3.385 3.71-6.978l.002-.002a.884.884 0 0 0-.079-1.315 43.63 43.63 0 0 1-.424-.338.888.888 0 0 0-1.187.062c-.07.07-.123.123-.138.14-1.775 1.821-3.018 3.508-3.714 5.026a.606.606 0 0 1-1.054.081c-2.755-4.165-4.235-9.045-4.235-14.154 0-1.826.19-3.624.559-5.37.055-.264.428-.28.506-.022.534 1.762 1.403 3.585 2.604 5.429 1.616 2.482 3.747 4.868 6.273 7.056.862.747 1.772 1.47 2.722 2.167a47.873 47.873 0 0 0 6.242 3.873 58.04 58.04 0 0 0 2.931 1.444 2.23 2.23 0 0 0 1.73.047c.465-.182.932-.371 1.402-.568a1.12 1.12 0 0 0 .653-1.307l-.038-.153c-.775-3.26-1.205-6.931-1.256-10.776h-.002v-.138c-.003-.21-.001-.421-.005-.631-.001-.067 0-.18.001-.247v-.08h.001c.002-.241.003-.481.008-.723.012-.66.035-1.314.07-1.963h-.002c.239-4.64 1.026-8.999 2.277-12.666a.648.648 0 0 0-.404-.823c-.331-.113-.661-.221-.991-.325a.645.645 0 0 0-.804.407c-1.356 3.983-2.193 8.707-2.417 13.707a1.882 1.882 0 0 1-.92 1.535c-2.96 1.755-5.68 3.616-8.03 5.49a1.3 1.3 0 0 1-1.661-.034c-2.355-2.041-4.337-4.259-5.835-6.56-2.944-4.52-3.644-8.779-1.97-11.989a25.663 25.663 0 0 1 .68-1.071C8.57 11.216 12.15 9.74 16.899 9.573c.3-.01.603-.016.908-.016 2.913 0 6.039.481 9.218 1.398l.21.061.16.047c.735.22 1.472.463 2.21.729v-.001l.052.019a42.974 42.974 0 0 1 .756.282l.174.066c1.552.602 3.103 1.3 4.635 2.097 2.965 1.54 5.68 3.346 8.041 5.328-4.507 1.032-9.747 3.024-15.015 5.71a.77.77 0 0 0-.418.641c-.019.327-.043.983-.06 1.505a.427.427 0 0 0 .625.392l.003-.002c5.216-2.739 10.422-4.786 14.892-5.868a1.67 1.67 0 0 0 1.26-1.856 45.778 45.778 0 0 0-.278-1.756 2.922 2.922 0 0 0-1.108-1.813 47.513 47.513 0 0 0-6.871-4.342 48.457 48.457 0 0 0-5.047-2.269.636.636 0 0 1-.328-.904c1.744-3.12 3.818-4.867 5.839-4.867h.062c2.384.043 4.76 2.525 6.52 6.81.891 2.169 1.581 4.67 2.053 7.388l-.007-.006c.201 1.16.363 2.359.484 3.589l-.032.018.043.044a57.57 57.57 0 0 1 .026 10.5c-3.188 2.576-7.13 5.14-11.464 7.437a83.064 83.064 0 0 1-4.259 2.105l-.065.03-.324.147h-.002a73.954 73.954 0 0 1-3.464 1.464l-.192.075-.24.093-.57.216-.157.06c-.23.085-.46.168-.688.25l-.085.03h-.001c-2.44.869-4.762 1.525-6.88 1.932-5.116.985-7.525.23-8.074-.805m3.675-38.435c4.33-3.101 9.505-4.774 14.937-4.774 1.434 0 2.849.117 4.236.346a.434.434 0 0 1 .2.768c-1.344 1.053-2.593 2.612-3.698 4.634-.27.493-.842.734-1.382.582-3.662-1.03-7.264-1.516-10.592-1.399-1.227.043-2.39.168-3.482.369-.307.056-.473-.345-.22-.526m35.321 18.753a.299.299 0 0 1 .542-.18 23.448 23.448 0 0 1 1.328 2.07.648.648 0 0 1-.084.757 30.108 30.108 0 0 1-1.375 1.412.257.257 0 0 1-.437-.193 60.4 60.4 0 0 0 .026-3.866M45.768 9.39a25.678 25.678 0 0 1 6.146 9 .433.433 0 0 1-.479.59 12.944 12.944 0 0 0-2.491-.177 1.297 1.297 0 0 1-1.305-1.064c-.5-2.806-1.223-5.397-2.152-7.658a25.635 25.635 0 0 0-.16-.383c-.119-.275.224-.515.44-.308M55.5 22.218c-1.109-5.267-3.715-10.106-7.61-14.002C42.59 2.918 35.545 0 28.052 0S13.515 2.918 8.217 8.216a28.352 28.352 0 0 0-3.435 4.158c-.297.395-.563.813-.8 1.25C1.386 17.938 0 22.89 0 28.053c0 7.493 2.918 14.538 8.217 19.836 5.298 5.299 12.343 8.217 19.836 8.217 7.493 0 14.538-2.918 19.836-8.217 2.5-2.5 4.47-5.39 5.854-8.532a9.96 9.96 0 0 0 .444-1.068 28.035 28.035 0 0 0 1.919-10.236c0-1.96-.201-3.887-.59-5.762l-.016-.073m157.137 8.475h-5.306a.648.648 0 0 1-.56-.972l2.661-4.594a.648.648 0 0 1 1.122.001l2.645 4.595a.647.647 0 0 1-.562.97m6.982 4.366-8.37-14.52a1.468 1.468 0 0 0-2.509 0l-8.37 14.52a1.31 1.31 0 0 0-.165.575c-.053.82.584 1.552 1.406 1.571.573.014 1.019-.275 1.364-.892l1.294-2.25a.949.949 0 0 1 .823-.476h9.78a.95.95 0 0 1 .823.477l1.294 2.25c.327.583.768.873 1.3.89.812.028 1.499-.633 1.499-1.446 0-.217-.049-.434-.17-.699" fill="#000" fill-rule="evenodd"/>
</svg>
