<svg width="32" height="27" xmlns="http://www.w3.org/2000/svg">
    <path d="m31 5.555-2.727-.682 1.363-2.727-3.36.955A6.11 6.11 0 0 0 16 7.6v1.363c-4.826.996-9.046-1.636-12.955-6.136-.681 3.636 0 6.363 2.046 8.182L1 10.328c.552 2.821 1.857 5.045 5.455 5.454l-3.41 1.364c1.364 2.727 3.5 3.15 6.819 3.41A14.656 14.656 0 0 1 1 23.281c17.393 7.73 27.273-3.632 27.273-13.636v-1.81L31 5.555z" stroke="#FFF" stroke-width="1.5" fill="none" fill-rule="evenodd" stroke-linecap="round" stroke-linejoin="round"/>
</svg>
